# xmcd CD database file
#
# Track frame offsets:
#	150
#	1538
#	17616
#	19619
#	33309
#	48282
#	64876
#	82624
#	97838
#	110617
#	132971
#	138387
#	145683
#	157958
#	175476
#	189321
#	200740
#
# Disc length: 2945 seconds
#
# Revision: 1
# Processed by: cddbd v1.5.2PL0 Copyright (c) Steve Scherf et al.
# Submitted via: CDex 1.51
#
DISCID=cc0b7f11
DTITLE=Dennis Ehrhardt - 01 - Mord auf Schloﬂ J‰gerhof CD01
DYEAR=1900
DGENRE=Hˆtbuch
TTITLE0=Mord auf Schloﬂ J‰gerhof CD01-01
TTITLE1=Mord auf Schloﬂ J‰gerhof CD01-02
TTITLE2=Mord auf Schloﬂ J‰gerhof CD01-03
TTITLE3=Mord auf Schloﬂ J‰gerhof CD01-04
TTITLE4=Mord auf Schloﬂ J‰gerhof CD01-05
TTITLE5=Mord auf Schloﬂ J‰gerhof CD01-06
TTITLE6=Mord auf Schloﬂ J‰gerhof CD01-07
TTITLE7=Mord auf Schloﬂ J‰gerhof CD01-08
TTITLE8=Mord auf Schloﬂ J‰gerhof CD01-09
TTITLE9=Mord auf Schloﬂ J‰gerhof CD01-10
TTITLE10=Mord auf Schloﬂ J‰gerhof CD01-11
TTITLE11=Mord auf Schloﬂ J‰gerhof CD01-12
TTITLE12=Mord auf Schloﬂ J‰gerhof CD01-13
TTITLE13=Mord auf Schloﬂ J‰gerhof CD01-14
TTITLE14=Mord auf Schloﬂ J‰gerhof CD01-15
TTITLE15=Mord auf Schloﬂ J‰gerhof CD01-16
TTITLE16=Mord auf Schloﬂ J‰gerhof CD01-17
EXTD=
EXTT0=
EXTT1=
EXTT2=
EXTT3=
EXTT4=
EXTT5=
EXTT6=
EXTT7=
EXTT8=
EXTT9=
EXTT10=
EXTT11=
EXTT12=
EXTT13=
EXTT14=
EXTT15=
EXTT16=
PLAYORDER=
